<svg xmlns="http://www.w3.org/2000/svg" width="24" height="24" viewBox="0 0 24 24" fill="none"><path fill="#ffffff" d="M12 2.163c3.204 0 3.584.012 4.85.07 1.17.056 1.97.24 2.428.403a4.92 4.92 0 0 1 1.78 1.153 4.92 4.92 0 0 1 1.153 1.78c.163.459.347 1.258.403 2.428.058 1.266.07 1.646.07 4.85s-.012 3.584-.07 4.85c-.056 1.17-.24 1.97-.403 2.428a4.92 4.92 0 0 1-1.153 1.78 4.92 4.92 0 0 1-1.78 1.153c-.459.163-1.258.347-2.428.403-1.266.058-1.646.07-4.85.07s-3.584-.012-4.85-.07c-1.17-.056-1.97-.24-2.428-.403a4.92 4.92 0 0 1-1.78-1.153 4.92 4.92 0 0 1-1.153-1.78c-.163-.459-.347-1.258-.403-2.428C2.175 15.747 2.163 15.367 2.163 12s.012-3.584.07-4.85c.056-1.17.24-1.97.403-2.428a4.92 4.92 0 0 1 1.153-1.78 4.92 4.92 0 0 1 1.78-1.153c.459-.163 1.258-.347 2.428-.403C8.416 2.175 8.796 2.163 12 2.163Zm0 1.622c-3.16 0-3.532.012-4.78.07-.999.046-1.54.212-1.897.352-.477.185-.82.406-1.179.765-.359.359-.58.702-.765 1.179-.14.357-.306.898-.352 1.897-.058 1.248-.07 1.62-.07 4.78s.012 3.532.07 4.78c.046.999.212 1.54.352 1.897.185.477.406.82.765 1.179.359.359.702.58 1.179.765.357.14.898.306 1.897.352 1.248.058 1.62.07 4.78.07s3.532-.012 4.78-.07c.999-.046 1.54-.212 1.897-.352.477-.185.82-.406 1.179-.765.359-.359.58-.702.765-1.179.14-.357.306-.898.352-1.897.058-1.248.07-1.62.07-4.78s-.012-3.532-.07-4.78c-.046-.999-.212-1.54-.352-1.897a3.308 3.308 0 0 0-.765-1.179 3.308 3.308 0 0 0-1.179-.765c-.357-.14-.898-.306-1.897-.352-1.248-.058-1.62-.07-4.78-.07Zm0 3.919a5.296 5.296 0 1 1 0 10.592 5.296 5.296 0 0 1 0-10.592Zm0 1.622a3.674 3.674 0 1 0 0 7.348 3.674 3.674 0 0 0 0-7.348Zm5.406-2.197a1.237 1.237 0 1 1 0 2.474 1.237 1.237 0 0 1 0-2.474Z"/></svg>
