<svg xmlns="http://www.w3.org/2000/svg" width="24" height="24" viewBox="0 0 24 24" fill="none"><path fill="#ffffff" d="M19.633 7.997c.013.18.013.36.013.541 0 5.507-4.193 11.855-11.855 11.855-2.355 0-4.545-.689-6.389-1.875.33.038.647.05.99.05a8.39 8.39 0 0 0 5.2-1.79 4.194 4.194 0 0 1-3.915-2.904c.255.038.51.063.777.063.374 0 .748-.05 1.096-.14a4.186 4.186 0 0 1-3.355-4.108v-.051c.547.305 1.182.49 1.853.514a4.178 4.178 0 0 1-1.87-3.49c0-.777.204-1.49.56-2.112a11.9 11.9 0 0 0 8.64 4.382 4.728 4.728 0 0 1-.102-.96 4.186 4.186 0 0 1 7.25-2.865 8.263 8.263 0 0 0 2.657-1.01 4.204 4.204 0 0 1-1.842 2.315 8.398 8.398 0 0 0 2.41-.647 9.012 9.012 0 0 1-2.097 2.17Z"/></svg>
